<?xml version="1.0" encoding="UTF-8" standalone="no"?>
<svg
   width="24"
   height="24"
   viewBox="0 0 24 24"
   version="1.1"
   id="svg1"
   sodipodi:docname="solar--box-bold.svg"
   inkscape:export-filename="solar--box-bold.svg"
   inkscape:export-xdpi="96"
   inkscape:export-ydpi="96"
   xmlns:inkscape="http://www.inkscape.org/namespaces/inkscape"
   xmlns:sodipodi="http://sodipodi.sourceforge.net/DTD/sodipodi-0.dtd"
   xmlns="http://www.w3.org/2000/svg"
   xmlns:svg="http://www.w3.org/2000/svg">
  <defs
     id="defs1" />
  <sodipodi:namedview
     id="namedview1"
     pagecolor="#ffffff"
     bordercolor="#000000"
     borderopacity="0.25"
     inkscape:showpageshadow="2"
     inkscape:pageopacity="0.0"
     inkscape:pagecheckerboard="0"
     inkscape:deskcolor="#d1d1d1">
    <inkscape:page
       x="0"
       y="0"
       width="24"
       height="24"
       id="page2"
       margin="0"
       bleed="0" />
  </sodipodi:namedview>
  <path
     fill="currentColor"
     d="m 17.578,4.432 -2,-1.05 C 13.822,2.461 12.944,2 12,2 11.056,2 10.178,2.46 8.422,3.382 L 8.101,3.551 17.024,8.65 21.04,6.64 C 20.394,5.908 19.352,5.361 17.578,4.43 m 4.17,3.534 -3.998,2 V 13 a 0.75,0.75 0 0 1 -1.5,0 v -2.286 l -3.5,1.75 v 9.44 c 0.718,-0.179 1.535,-0.607 2.828,-1.286 l 2,-1.05 C 19.729,18.439 20.805,17.875 21.403,16.86 22,15.846 22,14.583 22,12.06 V 11.943 C 22,10.05 22,8.867 21.748,7.965 M 11.25,21.904 v -9.44 L 2.252,7.964 C 2,8.866 2,10.05 2,11.941 v 0.117 c 0,2.525 0,3.788 0.597,4.802 0.598,1.015 1.674,1.58 3.825,2.709 l 2,1.049 c 1.293,0.679 2.11,1.107 2.828,1.286 M 2.96,6.641 12,11.161 15.411,9.456 6.525,4.378 6.422,4.432 C 4.649,5.362 3.606,5.909 2.96,6.642"
     id="path1"
     style="fill:#780000;fill-opacity:1" />
</svg>
