<?xml version="1.0" encoding="UTF-8" standalone="no"?>
<svg
   width="28"
   height="24"
   viewBox="0 0 28 24"
   version="1.1"
   id="svg1"
   sodipodi:docname="local.svg"
   xmlns:inkscape="http://www.inkscape.org/namespaces/inkscape"
   xmlns:sodipodi="http://sodipodi.sourceforge.net/DTD/sodipodi-0.dtd"
   xmlns="http://www.w3.org/2000/svg"
   xmlns:svg="http://www.w3.org/2000/svg">
  <defs
     id="defs1" />
  <sodipodi:namedview
     id="namedview1"
     pagecolor="#ffffff"
     bordercolor="#000000"
     borderopacity="0.25"
     inkscape:showpageshadow="2"
     inkscape:pageopacity="0.0"
     inkscape:pagecheckerboard="0"
     inkscape:deskcolor="#d1d1d1">
    <inkscape:page
       x="0"
       y="0"
       width="28"
       height="24"
       id="page2"
       margin="0"
       bleed="0" />
  </sodipodi:namedview>
  <path
     fill="currentColor"
     d="M 0.482,24 A 0.393,0.393 0 0 1 0.093,23.607 v -1.783 c 0,-0.217 0.176,-0.393 0.393,-0.393 H 1.833 V 8.671 A 0.8,0.8 0 0 1 1.872,8.427 L 1.87,8.433 A 3.27,3.27 0 0 1 0.07,7.146 L 0.063,7.135 A 0.4,0.4 0 0 1 0,6.921 V 0.394 C 0,0.177 0.176,0.001 0.393,0 H 27.407 C 27.624,0 27.8,0.176 27.8,0.393 V 6.92 A 0.4,0.4 0 0 1 27.736,7.135 L 27.737,7.133 A 3.49,3.49 0 0 1 25.05,8.601 H 25.042 V 21.43 h 1.091 c 0.217,0 0.393,0.176 0.393,0.393 v 1.783 a 0.393,0.393 0 0 1 -0.393,0.393 h -10e-4 z m 22.99,-2.965 V 8.673 q 0,-0.106 0.026,-0.202 l -0.001,0.006 a 3.5,3.5 0 0 1 -1.53,-0.836 l 0.002,0.002 a 3.82,3.82 0 0 1 -2.68,0.976 h 0.006 a 3.8,3.8 0 0 1 -2.69,-0.996 l 0.003,0.003 A 3.8,3.8 0 0 1 14.034,8.621 L 13.915,8.619 h 0.006 a 3.82,3.82 0 0 1 -2.69,-0.996 l 0.003,0.003 A 3.8,3.8 0 0 1 8.659,8.621 L 8.531,8.619 H 8.537 A 3.8,3.8 0 0 1 5.847,7.623 L 5.85,7.626 A 3.74,3.74 0 0 1 3.409,8.619 H 3.404 V 21.036 H 4.56 v -5.253 c 0,-0.217 0.176,-0.393 0.393,-0.393 h 4.651 c 0.217,0 0.393,0.176 0.393,0.393 v 5.253 z M 19.295,7.833 a 3.03,3.03 0 0 0 2.2,-0.835 L 21.494,6.999 A 0.4,0.4 0 0 1 21.485,6.916 V 0.787 h -4.41 V 6.92 l 0.001,0.027 -0.001,0.028 V 6.974 a 3.03,3.03 0 0 0 2.117,0.861 l 0.11,-0.002 h -0.005 z m -10.758,0 0.106,0.002 c 0.824,0 1.571,-0.328 2.118,-0.861 L 10.76,6.975 10.759,6.948 10.76,6.92 V 6.921 0.788 H 6.312 V 6.921 L 6.313,6.948 6.312,6.976 V 6.975 A 3.03,3.03 0 0 0 8.429,7.836 L 8.541,7.834 H 8.536 Z m 2.873,10.495 a 0.393,0.393 0 0 1 -0.393,-0.393 v -6.821 c 0,-0.217 0.176,-0.393 0.393,-0.393 h 11.009 c 0.217,0 0.393,0.176 0.393,0.393 v 6.822 a 0.393,0.393 0 0 1 -0.393,0.393 h -0.001 z"
     id="path1"
     style="fill:#fdf0d5;fill-opacity:1" />
</svg>
