<?xml version="1.0" encoding="UTF-8" standalone="no"?>
<svg
   width="24"
   height="24"
   viewBox="0 0 24 24"
   version="1.1"
   id="svg1"
   sodipodi:docname="mypime.svg"
   xmlns:inkscape="http://www.inkscape.org/namespaces/inkscape"
   xmlns:sodipodi="http://sodipodi.sourceforge.net/DTD/sodipodi-0.dtd"
   xmlns="http://www.w3.org/2000/svg"
   xmlns:svg="http://www.w3.org/2000/svg">
  <defs
     id="defs1" />
  <sodipodi:namedview
     id="namedview1"
     pagecolor="#ffffff"
     bordercolor="#000000"
     borderopacity="0.25"
     inkscape:showpageshadow="2"
     inkscape:pageopacity="0.0"
     inkscape:pagecheckerboard="0"
     inkscape:deskcolor="#d1d1d1">
    <inkscape:page
       x="0"
       y="0"
       width="24"
       height="24"
       id="page2"
       margin="0"
       bleed="0" />
  </sodipodi:namedview>
  <path
     fill="currentColor"
     d="m 7,18 c -1.1,0 -1.99,0.9 -1.99,2 0,1.1 0.89,2 1.99,2 1.1,0 2,-0.9 2,-2 C 9,18.9 8.1,18 7,18 M 2,4 h 1 l 3.6,7.59 -1.35,2.44 C 4.52,15.37 5.48,17 7,17 h 11 c 0.55,0 1,-0.45 1,-1 0,-0.55 -0.45,-1 -1,-1 H 7 l 1.1,-2 h 7.45 c 0.75,0 1.41,-0.41 1.75,-1.03 L 20.88,5.48 A 0.996,0.996 0 0 0 20.01,4 H 5.21 L 4.54,2.57 A 0.99,0.99 0 0 0 3.64,2 H 2 C 1.45,2 1,2.45 1,3 1,3.55 1.45,4 2,4 m 15,14 c -1.1,0 -1.99,0.9 -1.99,2 0,1.1 0.89,2 1.99,2 1.1,0 2,-0.9 2,-2 0,-1.1 -0.9,-2 -2,-2"
     id="path1"
     style="fill:#fdf0d5;fill-opacity:1" />
</svg>
