<?xml version="1.0" encoding="UTF-8" standalone="no"?>
<svg
   width="24"
   height="24"
   viewBox="0 0 24 24"
   version="1.1"
   id="svg1"
   sodipodi:docname="material-symbols--engineering-sharp.svg"
   inkscape:export-filename="material-symbols--engineering-sharp.png"
   inkscape:export-xdpi="96"
   inkscape:export-ydpi="96"
   xmlns:inkscape="http://www.inkscape.org/namespaces/inkscape"
   xmlns:sodipodi="http://sodipodi.sourceforge.net/DTD/sodipodi-0.dtd"
   xmlns="http://www.w3.org/2000/svg"
   xmlns:svg="http://www.w3.org/2000/svg">
  <defs
     id="defs1" />
  <sodipodi:namedview
     id="namedview1"
     pagecolor="#ffffff"
     bordercolor="#000000"
     borderopacity="0.25"
     inkscape:showpageshadow="2"
     inkscape:pageopacity="0.0"
     inkscape:pagecheckerboard="0"
     inkscape:deskcolor="#d1d1d1">
    <inkscape:page
       x="0"
       y="0"
       width="24"
       height="24"
       id="page2"
       margin="0"
       bleed="0" />
  </sodipodi:namedview>
  <path
     fill="currentColor"
     d="m 1.05,21 v -2.8 q 0,-0.825 0.425,-1.55 Q 1.9,15.925 2.65,15.55 3.925,14.9 5.525,14.45 7.125,14 9.05,14 q 1.925,0 3.525,0.45 1.6,0.45 2.875,1.1 0.75,0.375 1.175,1.1 0.425,0.725 0.425,1.55 V 21 Z M 6.225,11.825 Q 5.05,10.65 5.05,9 H 4.3 V 8 H 5.05 Q 5.05,6.875 5.6,5.975 6.15,5.075 7.05,4.55 V 6 h 1 V 4.15 Q 8.275,4.075 8.525,4.038 8.775,4.001 9.05,4 9.325,3.999 9.575,4.038 9.825,4.077 10.05,4.15 V 6 h 1 V 4.55 q 0.9,0.525 1.45,1.425 0.55,0.9 0.55,2.025 h 0.75 v 1 h -0.75 q 0,1.65 -1.175,2.825 Q 10.7,13 9.05,13 7.4,13 6.225,11.825 m 4.238,-1.412 Q 11.05,9.825 11.05,9 h -4 q 0,0.825 0.588,1.413 Q 8.226,11.001 9.05,11 9.874,10.999 10.463,10.413 M 16.55,15 16.4,14.25 Q 16.25,14.2 16.113,14.138 15.976,14.076 15.85,13.95 l -0.7,0.25 -0.5,-0.9 0.55,-0.5 v -0.6 l -0.55,-0.5 0.5,-0.9 0.7,0.25 q 0.1,-0.1 0.25,-0.175 0.15,-0.075 0.3,-0.125 L 16.55,10 h 1 l 0.15,0.75 q 0.15,0.05 0.3,0.125 0.15,0.075 0.25,0.175 l 0.7,-0.25 0.5,0.9 -0.55,0.5 v 0.6 l 0.55,0.5 -0.5,0.9 -0.7,-0.25 q -0.125,0.125 -0.262,0.188 -0.137,0.063 -0.288,0.112 L 17.55,15 Z m 1.025,-1.975 Q 17.8,12.8 17.8,12.5 17.8,12.2 17.575,11.975 17.35,11.75 17.05,11.75 q -0.3,0 -0.525,0.225 Q 16.3,12.2 16.3,12.5 q 0,0.3 0.225,0.525 0.225,0.225 0.525,0.225 0.3,0 0.525,-0.225 M 18.85,10 18.65,8.95 Q 18.425,8.875 18.237,8.763 18.049,8.651 17.9,8.5 L 16.85,8.85 16.15,7.65 17,6.9 Q 16.95,6.775 16.95,6.7 V 6.3 Q 16.95,6.225 17,6.1 L 16.15,5.35 16.85,4.15 17.9,4.5 Q 18.05,4.35 18.238,4.237 18.426,4.124 18.65,4.05 L 18.85,3 h 1.4 l 0.2,1.05 q 0.225,0.075 0.413,0.188 0.188,0.113 0.337,0.262 l 1.05,-0.35 0.7,1.2 -0.85,0.75 q 0.05,0.125 0.05,0.2 v 0.4 q 0,0.075 -0.05,0.2 l 0.85,0.75 -0.7,1.2 L 21.2,8.5 Q 21.05,8.65 20.863,8.763 20.676,8.876 20.45,8.95 L 20.25,10 Z M 20.437,7.387 Q 20.8,7.025 20.8,6.5 20.8,5.975 20.437,5.612 20.074,5.249 19.55,5.25 19.026,5.251 18.662,5.613 18.298,5.975 18.3,6.5 q 0.002,0.525 0.363,0.888 0.361,0.363 0.887,0.362 0.526,-0.001 0.888,-0.363"
     id="path1"
     style="fill:#780000;fill-opacity:1" />
</svg>
