<?xml version="1.0" encoding="UTF-8" standalone="no"?>
<svg
   width="576"
   height="512"
   viewBox="0 0 576 512"
   version="1.1"
   id="svg1"
   sodipodi:docname="fa6-solid--store.svg"
   xmlns:inkscape="http://www.inkscape.org/namespaces/inkscape"
   xmlns:sodipodi="http://sodipodi.sourceforge.net/DTD/sodipodi-0.dtd"
   xmlns="http://www.w3.org/2000/svg"
   xmlns:svg="http://www.w3.org/2000/svg">
  <defs
     id="defs1" />
  <sodipodi:namedview
     id="namedview1"
     pagecolor="#ffffff"
     bordercolor="#000000"
     borderopacity="0.25"
     inkscape:showpageshadow="2"
     inkscape:pageopacity="0.0"
     inkscape:pagecheckerboard="0"
     inkscape:deskcolor="#d1d1d1">
    <inkscape:page
       x="0"
       y="0"
       width="576"
       height="512"
       id="page2"
       margin="0"
       bleed="0" />
  </sodipodi:namedview>
  <path
     fill="currentColor"
     d="M 536.20189,111.50555 481.668,25.184025 C 476.8142,17.475047 468.1535,12.716418 458.92176,12.716418 H 119.34601 c -9.23174,0 -17.89244,4.758629 -22.74624,12.467607 L 41.970709,111.50555 c -28.171082,44.54077 -3.235867,106.49811 49.394571,113.63605 3.8069,0.47587 7.70897,0.76139 11.51588,0.76139 24.84004,0 46.92008,-10.84968 62.05252,-27.60005 15.13244,16.75037 37.21247,27.60005 62.05251,27.60005 24.84005,0 46.92008,-10.84968 62.05252,-27.60005 15.13244,16.75037 37.21248,27.60005 62.05252,27.60005 24.93522,0 46.92008,-10.84968 62.05252,-27.60005 15.22761,16.75037 37.21248,27.60005 62.05252,27.60005 3.90207,0 7.70898,-0.28552 11.51588,-0.76139 52.82078,-7.04277 77.85117,-69.00011 49.58491,-113.63605 z m -45.58766,143.80576 h -0.0952 c -5.04414,0.66621 -10.18346,1.0469 -15.41795,1.0469 -11.8014,0 -23.12694,-1.80828 -33.69109,-5.04415 V 378.1791 H 136.85777 V 251.21889 c -10.65933,3.33104 -22.08004,5.13932 -33.88144,5.13932 -5.23449,0 -10.46898,-0.38069 -15.51313,-1.0469 h -0.09517 c -3.902076,-0.57103 -7.708979,-1.23724 -11.420709,-2.18897 V 439.08955 C 75.947319,472.68547 103.26185,500 136.85777,500 h 304.55224 c 33.59591,0 60.91044,-27.31453 60.91044,-60.91045 V 253.12234 c -3.8069,0.95173 -7.6138,1.71311 -11.70622,2.18897"
     id="path1"
     style="fill:#780000;fill-opacity:1;stroke-width:0.951726" />
</svg>
